<svg width="201" height="198" viewBox="0 0 201 198" fill="none" xmlns="http://www.w3.org/2000/svg">
<g filter="url(#filter0_d_358_98)">
<path d="M72.1045 113.12C75.6284 109.854 81.1229 110.072 84.3768 113.607C87.6307 117.142 87.4118 122.656 83.8878 125.922L24.0399 181.391C20.516 184.657 15.0215 184.439 11.7676 180.904C8.51367 177.369 8.7326 171.855 12.2566 168.589L72.1045 113.12Z" fill="#EEEEEE" stroke="#F2F2F2"/>
<path d="M184.695 73.7934C184.695 108.5 156.666 136.587 122.149 136.587C87.6313 136.587 59.6019 108.5 59.6019 73.7934C59.6019 39.0872 87.6313 11 122.149 11C156.666 11 184.695 39.0872 184.695 73.7934Z" stroke="#F2F2F2" stroke-width="16"/>
</g>
<defs>
<filter id="filter0_d_358_98" x="0.964355" y="0" width="199.731" height="197.206" filterUnits="userSpaceOnUse" color-interpolation-filters="sRGB">
<feFlood flood-opacity="0" result="BackgroundImageFix"/>
<feColorMatrix in="SourceAlpha" type="matrix" values="0 0 0 0 0 0 0 0 0 0 0 0 0 0 0 0 0 0 127 0" result="hardAlpha"/>
<feOffset dy="5"/>
<feGaussianBlur stdDeviation="4"/>
<feComposite in2="hardAlpha" operator="out"/>
<feColorMatrix type="matrix" values="0 0 0 0 0 0 0 0 0 0 0 0 0 0 0 0 0 0 0.5 0"/>
<feBlend mode="normal" in2="BackgroundImageFix" result="effect1_dropShadow_358_98"/>
<feBlend mode="normal" in="SourceGraphic" in2="effect1_dropShadow_358_98" result="shape"/>
</filter>
</defs>
</svg>
